<svg width="430" height="932" viewBox="0 0 430 932" fill="none" xmlns="http://www.w3.org/2000/svg">
<g clip-path="url(#clip0_102_31)">
<rect width="430" height="932" fill="white"/>
<g filter="url(#filter0_b_102_31)">
<path d="M492.004 499.966C624.789 602.214 649.543 792.746 547.295 925.531C445.047 1058.32 254.515 1083.07 121.73 980.822C-11.0543 878.573 202.51 871.554 304.758 738.77C407.006 605.985 359.219 397.718 492.004 499.966Z" fill="#38B6F4" fill-opacity="0.4"/>
</g>
<g opacity="0.2">
<path d="M246.645 861.378L233.145 854.278C232.798 854.095 232.403 853.999 232 854C231.597 854 231.201 854.097 230.855 854.28L217.355 861.38C217.018 861.556 216.739 861.808 216.545 862.11C216.352 862.411 216.25 862.753 216.25 863.1V876.9C216.25 877.608 216.671 878.262 217.355 878.62L230.855 885.72C231.201 885.905 231.597 886.002 232 886.002C232.403 886.002 232.799 885.905 233.145 885.72L246.645 878.62C246.982 878.444 247.261 878.192 247.455 877.89C247.648 877.589 247.75 877.247 247.75 876.9V863.1C247.75 862.752 247.648 862.411 247.455 862.109C247.261 861.807 246.982 861.555 246.645 861.378V861.378ZM243.25 875.76L232 881.676L220.75 875.76V864.24L232 858.324L243.25 864.24V875.76V875.76Z" fill="#DFE0E0"/>
<path d="M209.5 876.368V858.14L223.45 850.812L221.162 847.368L206.105 855.278C205.768 855.455 205.489 855.707 205.295 856.009C205.102 856.311 205 856.652 205 857V876.368C203.688 876.779 202.551 877.541 201.745 878.55C200.939 879.558 200.504 880.763 200.5 882C200.5 885.308 203.528 888 207.25 888C210.972 888 214 885.308 214 882C213.996 880.763 213.561 879.558 212.755 878.55C211.949 877.541 210.812 876.779 209.5 876.368V876.368ZM207.25 884C206.671 883.977 206.124 883.756 205.723 883.384C205.322 883.011 205.098 882.515 205.098 882C205.098 881.485 205.322 880.989 205.723 880.616C206.124 880.244 206.671 880.023 207.25 880C207.829 880.023 208.376 880.244 208.777 880.616C209.178 880.989 209.402 881.485 209.402 882C209.402 882.515 209.178 883.011 208.777 883.384C208.376 883.756 207.829 883.977 207.25 884V884ZM256.75 876C253.028 876 250 878.692 250 882C250 882.706 250.162 883.374 250.416 884.004L232 893.676L217.591 886.108L215.303 889.552L230.855 897.72C231.201 897.903 231.597 898 232 898C232.403 898.001 232.798 897.905 233.145 897.722L253.305 887.132C254.318 887.67 255.488 888 256.75 888C260.472 888 263.5 885.308 263.5 882C263.5 878.692 260.472 876 256.75 876V876ZM256.75 884C256.171 883.977 255.624 883.756 255.223 883.384C254.822 883.011 254.598 882.515 254.598 882C254.598 881.485 254.822 880.989 255.223 880.616C255.624 880.244 256.171 880.023 256.75 880C257.329 880.023 257.876 880.244 258.277 880.616C258.678 880.989 258.902 881.485 258.902 882C258.902 882.515 258.678 883.011 258.277 883.384C257.876 883.756 257.329 883.977 256.75 884V884ZM232 850C233.645 850 235.132 849.454 236.304 848.584L254.5 858.142V872H259V857C259 856.652 258.898 856.311 258.705 856.009C258.511 855.707 258.232 855.455 257.895 855.278L238.619 845.154C238.7 844.78 238.75 844.396 238.75 844C238.75 840.692 235.722 838 232 838C228.278 838 225.25 840.692 225.25 844C225.25 847.308 228.278 850 232 850ZM232 842C232.446 842 232.881 842.117 233.252 842.337C233.623 842.556 233.912 842.869 234.083 843.235C234.253 843.601 234.298 844.004 234.211 844.392C234.125 844.781 233.91 845.138 233.595 845.418C233.28 845.698 232.878 845.888 232.441 845.966C232.004 846.043 231.551 846.003 231.139 845.851C230.728 845.699 230.376 845.443 230.129 845.113C229.881 844.783 229.75 844.396 229.75 844C229.75 842.896 230.76 842 232 842Z" fill="#DFE0E0"/>
</g>
<path d="M271.429 724C269.458 724 267.569 724.785 266.176 726.183C264.783 727.581 264 729.477 264 731.455V753.818C264 755.795 264.783 757.691 266.176 759.089C267.569 760.487 269.458 761.273 271.429 761.273H282.571V753.818H271.429V731.455H282.571V724H271.429ZM293.714 724C291.744 724 289.855 724.785 288.461 726.183C287.068 727.581 286.286 729.477 286.286 731.455V753.818C286.286 755.795 287.068 757.691 288.461 759.089C289.855 760.487 291.744 761.273 293.714 761.273H301.143C303.113 761.273 305.003 760.487 306.396 759.089C307.789 757.691 308.571 755.795 308.571 753.818V731.455C308.571 729.477 307.789 727.581 306.396 726.183C305.003 724.785 303.113 724 301.143 724H293.714ZM293.714 731.455H301.143V753.818H293.714V731.455ZM312.286 737.045V742.636H323.429V748.227H317.857C316.38 748.227 314.962 748.816 313.918 749.865C312.873 750.913 312.286 752.335 312.286 753.818V765H329V759.409H317.857V753.818H323.429C324.906 753.818 326.323 753.229 327.368 752.181C328.413 751.132 329 749.71 329 748.227V742.636C329 741.154 328.413 739.731 327.368 738.683C326.323 737.634 324.906 737.045 323.429 737.045H312.286Z" fill="#DFE0E0" fill-opacity="0.2"/>
<path d="M341.886 241C339.794 241 337.789 241.843 336.31 243.343C334.831 244.843 334 246.878 334 249V273C334 275.122 334.831 277.157 336.31 278.657C337.789 280.157 339.794 281 341.886 281H353.714V273H341.886V249H353.714V241H341.886ZM365.543 241C363.451 241 361.446 241.843 359.967 243.343C358.488 244.843 357.657 246.878 357.657 249V273C357.657 275.122 358.488 277.157 359.967 278.657C361.446 280.157 363.451 281 365.543 281H373.429C375.52 281 377.526 280.157 379.005 278.657C380.483 277.157 381.314 275.122 381.314 273V249C381.314 246.878 380.483 244.843 379.005 243.343C377.526 241.843 375.52 241 373.429 241H365.543ZM365.543 249H373.429V273H365.543V249ZM385.257 255V261H397.086V267H391.171C389.603 267 388.099 267.632 386.989 268.757C385.88 269.883 385.257 271.409 385.257 273V285H403V279H391.171V273H397.086C398.654 273 400.159 272.368 401.268 271.243C402.377 270.117 403 268.591 403 267V261C403 259.409 402.377 257.883 401.268 256.757C400.159 255.632 398.654 255 397.086 255H385.257Z" fill="#DFE0E0" fill-opacity="0.2"/>
<path d="M34.5 299.083C18.6214 299.083 5.75 285.839 5.75 269.5C5.75 253.161 18.6214 239.917 34.5 239.917C50.3786 239.917 63.25 253.161 63.25 269.5C63.25 285.839 50.3786 299.083 34.5 299.083ZM34.5 293.167C40.6 293.167 46.4501 290.673 50.7635 286.235C55.0768 281.797 57.5 275.777 57.5 269.5C57.5 263.223 55.0768 257.204 50.7635 252.765C46.4501 248.327 40.6 245.833 34.5 245.833C28.4 245.833 22.5499 248.327 18.2365 252.765C13.9232 257.204 11.5 263.223 11.5 269.5C11.5 275.777 13.9232 281.797 18.2365 286.235C22.5499 290.673 28.4 293.167 34.5 293.167V293.167ZM24.4375 275.417H40.25C40.6312 275.417 40.9969 275.261 41.2665 274.983C41.5361 274.706 41.6875 274.33 41.6875 273.938C41.6875 273.545 41.5361 273.169 41.2665 272.892C40.9969 272.614 40.6312 272.458 40.25 272.458H28.75C26.8438 272.458 25.0156 271.679 23.6677 270.292C22.3198 268.905 21.5625 267.024 21.5625 265.063C21.5625 263.101 22.3198 261.22 23.6677 259.833C25.0156 258.446 26.8438 257.667 28.75 257.667H31.625V251.75H37.375V257.667H44.5625V263.583H28.75C28.3688 263.583 28.0031 263.739 27.7335 264.017C27.4639 264.294 27.3125 264.67 27.3125 265.063C27.3125 265.455 27.4639 265.831 27.7335 266.108C28.0031 266.386 28.3688 266.542 28.75 266.542H40.25C42.1562 266.542 43.9844 267.321 45.3323 268.708C46.6802 270.095 47.4375 271.976 47.4375 273.938C47.4375 275.899 46.6802 277.78 45.3323 279.167C43.9844 280.554 42.1562 281.333 40.25 281.333H37.375V287.25H31.625V281.333H24.4375V275.417Z" fill="#DFE0E0" fill-opacity="0.2"/>
<path d="M140.5 162.083C124.621 162.083 111.75 148.839 111.75 132.5C111.75 116.161 124.621 102.917 140.5 102.917C156.379 102.917 169.25 116.161 169.25 132.5C169.25 148.839 156.379 162.083 140.5 162.083ZM140.5 156.167C146.6 156.167 152.45 153.673 156.763 149.235C161.077 144.796 163.5 138.777 163.5 132.5C163.5 126.223 161.077 120.203 156.763 115.765C152.45 111.327 146.6 108.833 140.5 108.833C134.4 108.833 128.55 111.327 124.237 115.765C119.923 120.203 117.5 126.223 117.5 132.5C117.5 138.777 119.923 144.796 124.237 149.235C128.55 153.673 134.4 156.167 140.5 156.167V156.167ZM130.438 138.417H146.25C146.631 138.417 146.997 138.261 147.266 137.983C147.536 137.706 147.688 137.33 147.688 136.937C147.688 136.545 147.536 136.169 147.266 135.892C146.997 135.614 146.631 135.458 146.25 135.458H134.75C132.844 135.458 131.016 134.679 129.668 133.292C128.32 131.905 127.562 130.024 127.562 128.062C127.562 126.101 128.32 124.22 129.668 122.833C131.016 121.446 132.844 120.667 134.75 120.667H137.625V114.75H143.375V120.667H150.562V126.583H134.75C134.369 126.583 134.003 126.739 133.734 127.017C133.464 127.294 133.312 127.67 133.312 128.062C133.312 128.455 133.464 128.831 133.734 129.108C134.003 129.386 134.369 129.542 134.75 129.542H146.25C148.156 129.542 149.984 130.321 151.332 131.708C152.68 133.095 153.438 134.976 153.438 136.937C153.438 138.899 152.68 140.78 151.332 142.167C149.984 143.554 148.156 144.333 146.25 144.333H143.375V150.25H137.625V144.333H130.438V138.417Z" fill="#DFE0E0" fill-opacity="0.2"/>
<g opacity="0.2">
<path d="M388.018 580.378L376.018 573.278C375.71 573.095 375.358 572.999 375 573C374.641 573 374.29 573.097 373.982 573.28L361.982 580.38C361.683 580.556 361.435 580.808 361.263 581.11C361.09 581.411 361 581.753 361 582.1V595.9C361 596.608 361.374 597.262 361.982 597.62L373.982 604.72C374.289 604.905 374.641 605.002 375 605.002C375.359 605.002 375.711 604.905 376.018 604.72L388.018 597.62C388.317 597.444 388.565 597.192 388.737 596.89C388.91 596.589 389 596.247 389 595.9V582.1C389 581.752 388.91 581.411 388.737 581.109C388.565 580.807 388.317 580.555 388.018 580.378V580.378ZM385 594.76L375 600.676L365 594.76V583.24L375 577.324L385 583.24V594.76V594.76Z" fill="#DFE0E0"/>
<path d="M355 595.368V577.14L367.4 569.812L365.366 566.368L351.982 574.278C351.683 574.455 351.435 574.707 351.263 575.009C351.09 575.311 351 575.652 351 576V595.368C349.834 595.779 348.823 596.541 348.107 597.55C347.391 598.558 347.004 599.763 347 601C347 604.308 349.692 607 353 607C356.308 607 359 604.308 359 601C358.996 599.763 358.609 598.558 357.893 597.55C357.177 596.541 356.166 595.779 355 595.368V595.368ZM353 603C352.485 602.977 351.999 602.756 351.643 602.384C351.286 602.011 351.087 601.515 351.087 601C351.087 600.485 351.286 599.989 351.643 599.616C351.999 599.244 352.485 599.023 353 599C353.515 599.023 354.001 599.244 354.357 599.616C354.714 599.989 354.913 600.485 354.913 601C354.913 601.515 354.714 602.011 354.357 602.384C354.001 602.756 353.515 602.977 353 603V603ZM397 595C393.692 595 391 597.692 391 601C391 601.706 391.144 602.374 391.37 603.004L375 612.676L362.192 605.108L360.158 608.552L373.982 616.72C374.29 616.903 374.641 617 375 617C375.358 617.001 375.71 616.905 376.018 616.722L393.938 606.132C394.838 606.67 395.878 607 397 607C400.308 607 403 604.308 403 601C403 597.692 400.308 595 397 595V595ZM397 603C396.485 602.977 395.999 602.756 395.643 602.384C395.286 602.011 395.087 601.515 395.087 601C395.087 600.485 395.286 599.989 395.643 599.616C395.999 599.244 396.485 599.023 397 599C397.515 599.023 398.001 599.244 398.357 599.616C398.714 599.989 398.913 600.485 398.913 601C398.913 601.515 398.714 602.011 398.357 602.384C398.001 602.756 397.515 602.977 397 603V603ZM375 569C376.462 569 377.784 568.454 378.826 567.584L395 577.142V591H399V576C399 575.652 398.91 575.311 398.737 575.009C398.565 574.707 398.317 574.455 398.018 574.278L380.884 564.154C380.956 563.78 381 563.396 381 563C381 559.692 378.308 557 375 557C371.692 557 369 559.692 369 563C369 566.308 371.692 569 375 569ZM375 561C375.396 561 375.783 561.117 376.113 561.337C376.443 561.556 376.699 561.869 376.851 562.235C377.003 562.601 377.043 563.004 376.966 563.392C376.888 563.781 376.698 564.138 376.418 564.418C376.138 564.698 375.781 564.888 375.392 564.966C375.004 565.043 374.601 565.003 374.235 564.851C373.869 564.699 373.556 564.443 373.337 564.113C373.117 563.783 373 563.396 373 563C373 561.896 373.898 561 375 561Z" fill="#DFE0E0"/>
</g>
<path d="M245.987 27.4775C245.12 23.1154 242.752 19.1875 239.289 16.3646C235.826 13.5417 231.482 11.999 227 12C219.534 12 213.05 16.2025 209.821 22.3525C206.024 22.7595 202.513 24.544 199.962 27.363C197.41 30.1821 196 33.8368 196 37.625C196 46.1069 202.949 53 211.5 53H245.083C252.213 53 258 47.26 258 40.1875C258 33.4225 252.704 27.9387 245.987 27.4775ZM245.083 47.875H211.5C205.791 47.875 201.167 43.2881 201.167 37.625C201.167 31.9619 205.791 27.375 211.5 27.375H213.334C215.039 21.4556 220.49 17.125 227 17.125C234.853 17.125 241.208 23.4288 241.208 31.2188V32.5H245.083C249.372 32.5 252.833 35.9338 252.833 40.1875C252.833 44.4412 249.372 47.875 245.083 47.875Z" fill="#DFE0E0" fill-opacity="0.2"/>
<path d="M375.987 795.477C375.12 791.115 372.752 787.187 369.289 784.365C365.826 781.542 361.482 779.999 357 780C349.534 780 343.05 784.202 339.821 790.352C336.024 790.76 332.513 792.544 329.962 795.363C327.41 798.182 326 801.837 326 805.625C326 814.107 332.949 821 341.5 821H375.083C382.213 821 388 815.26 388 808.188C388 801.422 382.704 795.939 375.987 795.477ZM375.083 815.875H341.5C335.791 815.875 331.167 811.288 331.167 805.625C331.167 799.962 335.791 795.375 341.5 795.375H343.334C345.039 789.456 350.49 785.125 357 785.125C364.853 785.125 371.208 791.429 371.208 799.219V800.5H375.083C379.372 800.5 382.833 803.934 382.833 808.188C382.833 812.441 379.372 815.875 375.083 815.875Z" fill="#DFE0E0" fill-opacity="0.2"/>
<path d="M181.5 160.5C181.5 243.895 88.895 262.5 5.49998 262.5C-77.895 262.5 -61.5 132.395 -61.5 49C-61.5 -34.395 112.605 -11 196 -11C279.395 -11 181.5 77.105 181.5 160.5Z" fill="#38B6F4" fill-opacity="0.4"/>
</g>
<defs>
<filter id="filter0_b_102_31" x="75.4893" y="468.656" width="538.842" height="579.202" filterUnits="userSpaceOnUse" color-interpolation-filters="sRGB">
<feFlood flood-opacity="0" result="BackgroundImageFix"/>
<feGaussianBlur in="BackgroundImageFix" stdDeviation="2"/>
<feComposite in2="SourceAlpha" operator="in" result="effect1_backgroundBlur_102_31"/>
<feBlend mode="normal" in="SourceGraphic" in2="effect1_backgroundBlur_102_31" result="shape"/>
</filter>
<clipPath id="clip0_102_31">
<rect width="430" height="932" fill="white"/>
</clipPath>
</defs>
</svg>
