<svg width="430" height="932" viewBox="0 0 430 932" fill="none" xmlns="http://www.w3.org/2000/svg">
<g clip-path="url(#clip0_102_31)">
<rect width="430" height="932" fill="white"/>
<g filter="url(#filter0_b_102_31)">
<path d="M492.004 499.966C624.789 602.214 649.543 792.746 547.295 925.531C445.047 1058.32 254.515 1083.07 121.73 980.822C-11.0543 878.573 202.51 871.554 304.758 738.77C407.006 605.985 359.219 397.718 492.004 499.966Z" fill="#62BD24" fill-opacity="0.3"/>
</g>
<g opacity="0.2">
<path d="M126.645 863.378L113.145 856.278C112.798 856.095 112.403 855.999 112 856C111.597 856 111.201 856.097 110.855 856.28L97.3548 863.38C97.0182 863.556 96.7392 863.808 96.5454 864.11C96.3517 864.411 96.2499 864.753 96.25 865.1V878.9C96.25 879.608 96.6708 880.262 97.3548 880.62L110.855 887.72C111.201 887.905 111.597 888.002 112 888.002C112.403 888.002 112.799 887.905 113.145 887.72L126.645 880.62C126.982 880.444 127.261 880.192 127.455 879.89C127.648 879.589 127.75 879.247 127.75 878.9V865.1C127.75 864.752 127.648 864.411 127.455 864.109C127.261 863.807 126.982 863.555 126.645 863.378ZM123.25 877.76L112 883.676L100.75 877.76V866.24L112 860.324L123.25 866.24V877.76Z" fill="#62BD24" fill-opacity="0.1"/>
<path d="M89.5 878.368V860.14L103.45 852.812L101.162 849.368L86.1048 857.278C85.7681 857.455 85.4892 857.707 85.2955 858.009C85.1017 858.311 84.9999 858.652 85 859V878.368C83.6877 878.779 82.5507 879.541 81.7451 880.55C80.9394 881.558 80.5045 882.763 80.5 884C80.5 887.308 83.5285 890 87.25 890C90.9715 890 94 887.308 94 884C93.9955 882.763 93.5606 881.558 92.7549 880.55C91.9493 879.541 90.8123 878.779 89.5 878.368ZM87.25 886C86.6707 885.977 86.1237 885.756 85.7229 885.384C85.3221 885.011 85.0984 884.515 85.0984 884C85.0984 883.485 85.3221 882.989 85.7229 882.616C86.1237 882.244 86.6707 882.023 87.25 882C87.8293 882.023 88.3763 882.244 88.7771 882.616C89.1779 882.989 89.4016 883.485 89.4016 884C89.4016 884.515 89.1779 885.011 88.7771 885.384C88.3763 885.756 87.8293 885.977 87.25 886ZM136.75 878C133.028 878 130 880.692 130 884C130 884.706 130.162 885.374 130.416 886.004L112 895.676L97.591 888.108L95.3028 891.552L110.855 899.72C111.201 899.903 111.597 900 112 900C112.403 900.001 112.798 899.905 113.145 899.722L133.305 889.132C134.318 889.67 135.488 890 136.75 890C140.472 890 143.5 887.308 143.5 884C143.5 880.692 140.472 878 136.75 878ZM136.75 886C136.171 885.977 135.624 885.756 135.223 885.384C134.822 885.011 134.598 884.515 134.598 884C134.598 883.485 134.822 882.989 135.223 882.616C135.624 882.244 136.171 882.023 136.75 882C137.329 882.023 137.876 882.244 138.277 882.616C138.678 882.989 138.902 883.485 138.902 884C138.902 884.515 138.678 885.011 138.277 885.384C137.876 885.756 137.329 885.977 136.75 886ZM112 852C113.645 852 115.132 851.454 116.304 850.584L134.5 860.142V874H139V859C139 858.652 138.898 858.311 138.705 858.009C138.511 857.707 138.232 857.455 137.895 857.278L118.619 847.154C118.701 846.78 118.75 846.396 118.75 846C118.75 842.692 115.722 840 112 840C108.278 840 105.25 842.692 105.25 846C105.25 849.308 108.278 852 112 852ZM112 844C112.446 844 112.881 844.117 113.252 844.337C113.623 844.556 113.912 844.869 114.083 845.235C114.253 845.601 114.298 846.004 114.211 846.392C114.125 846.781 113.91 847.138 113.595 847.418C113.28 847.698 112.878 847.888 112.441 847.966C112.004 848.043 111.551 848.003 111.139 847.851C110.728 847.699 110.376 847.443 110.129 847.113C109.881 846.783 109.75 846.396 109.75 846C109.75 844.896 110.76 844 112 844Z" fill="#62BD24" fill-opacity="0.1"/>
</g>
<path d="M339.429 525C337.458 525 335.569 525.785 334.176 527.183C332.783 528.581 332 530.477 332 532.455V554.818C332 556.795 332.783 558.691 334.176 560.089C335.569 561.487 337.458 562.273 339.429 562.273H350.571V554.818H339.429V532.455H350.571V525H339.429ZM361.714 525C359.744 525 357.855 525.785 356.461 527.183C355.068 528.581 354.286 530.477 354.286 532.455V554.818C354.286 556.795 355.068 558.691 356.461 560.089C357.855 561.487 359.744 562.273 361.714 562.273H369.143C371.113 562.273 373.003 561.487 374.396 560.089C375.789 558.691 376.571 556.795 376.571 554.818V532.455C376.571 530.477 375.789 528.581 374.396 527.183C373.003 525.785 371.113 525 369.143 525H361.714ZM361.714 532.455H369.143V554.818H361.714V532.455ZM380.286 538.045V543.636H391.429V549.227H385.857C384.38 549.227 382.962 549.816 381.918 550.865C380.873 551.913 380.286 553.335 380.286 554.818V566H397V560.409H385.857V554.818H391.429C392.906 554.818 394.323 554.229 395.368 553.181C396.413 552.132 397 550.71 397 549.227V543.636C397 542.154 396.413 540.731 395.368 539.683C394.323 538.634 392.906 538.045 391.429 538.045H380.286Z" fill="#DFE0E0" fill-opacity="0.05"/>
<path d="M199.886 826C197.794 826 195.789 826.843 194.31 828.343C192.831 829.843 192 831.878 192 834V858C192 860.122 192.831 862.157 194.31 863.657C195.789 865.157 197.794 866 199.886 866H211.714V858H199.886V834H211.714V826H199.886ZM223.543 826C221.451 826 219.446 826.843 217.967 828.343C216.488 829.843 215.657 831.878 215.657 834V858C215.657 860.122 216.488 862.157 217.967 863.657C219.446 865.157 221.451 866 223.543 866H231.429C233.52 866 235.526 865.157 237.005 863.657C238.483 862.157 239.314 860.122 239.314 858V834C239.314 831.878 238.483 829.843 237.005 828.343C235.526 826.843 233.52 826 231.429 826H223.543ZM223.543 834H231.429V858H223.543V834ZM243.257 840V846H255.086V852H249.171C247.603 852 246.099 852.632 244.989 853.757C243.88 854.883 243.257 856.409 243.257 858V870H261V864H249.171V858H255.086C256.654 858 258.159 857.368 259.268 856.243C260.377 855.117 261 853.591 261 852V846C261 844.409 260.377 842.883 259.268 841.757C258.159 840.632 256.654 840 255.086 840H243.257Z" fill="#DFE0E0" fill-opacity="0.1"/>
<g clip-path="url(#clip1_102_31)">
<path d="M200.987 756.477C200.12 752.115 197.752 748.187 194.289 745.365C190.826 742.542 186.482 740.999 182 741C174.534 741 168.05 745.202 164.821 751.352C161.024 751.76 157.513 753.544 154.962 756.363C152.41 759.182 151 762.837 151 766.625C151 775.107 157.949 782 166.5 782H200.083C207.213 782 213 776.26 213 769.188C213 762.423 207.704 756.939 200.987 756.477ZM200.083 776.875H166.5C160.791 776.875 156.167 772.288 156.167 766.625C156.167 760.962 160.791 756.375 166.5 756.375H168.334C170.039 750.456 175.49 746.125 182 746.125C189.853 746.125 196.208 752.429 196.208 760.219V761.5H200.083C204.372 761.5 207.833 764.934 207.833 769.188C207.833 773.441 204.372 776.875 200.083 776.875Z" fill="#DFE0E0" fill-opacity="0.2"/>
</g>
<path d="M360.75 691.167C344.871 691.167 332 677.922 332 661.583C332 645.244 344.871 632 360.75 632C376.629 632 389.5 645.244 389.5 661.583C389.5 677.922 376.629 691.167 360.75 691.167ZM360.75 685.25C366.85 685.25 372.7 682.757 377.013 678.318C381.327 673.88 383.75 667.86 383.75 661.583C383.75 655.307 381.327 649.287 377.013 644.848C372.7 640.41 366.85 637.917 360.75 637.917C354.65 637.917 348.8 640.41 344.487 644.848C340.173 649.287 337.75 655.307 337.75 661.583C337.75 667.86 340.173 673.88 344.487 678.318C348.8 682.757 354.65 685.25 360.75 685.25ZM350.688 667.5H366.5C366.881 667.5 367.247 667.344 367.516 667.067C367.786 666.789 367.938 666.413 367.938 666.021C367.938 665.629 367.786 665.252 367.516 664.975C367.247 664.698 366.881 664.542 366.5 664.542H355C353.094 664.542 351.266 663.762 349.918 662.375C348.57 660.988 347.812 659.107 347.812 657.146C347.812 655.184 348.57 653.303 349.918 651.916C351.266 650.529 353.094 649.75 355 649.75H357.875V643.833H363.625V649.75H370.812V655.667H355C354.619 655.667 354.253 655.823 353.984 656.1C353.714 656.377 353.562 656.754 353.562 657.146C353.562 657.538 353.714 657.914 353.984 658.192C354.253 658.469 354.619 658.625 355 658.625H366.5C368.406 658.625 370.234 659.404 371.582 660.791C372.93 662.178 373.688 664.059 373.688 666.021C373.688 667.982 372.93 669.863 371.582 671.25C370.234 672.637 368.406 673.417 366.5 673.417H363.625V679.333H357.875V673.417H350.688V667.5Z" fill="#DFE0E0" fill-opacity="0.1"/>
<path d="M140.5 162.083C124.621 162.083 111.75 148.839 111.75 132.5C111.75 116.161 124.621 102.917 140.5 102.917C156.379 102.917 169.25 116.161 169.25 132.5C169.25 148.839 156.379 162.083 140.5 162.083ZM140.5 156.167C146.6 156.167 152.45 153.673 156.763 149.235C161.077 144.796 163.5 138.777 163.5 132.5C163.5 126.223 161.077 120.203 156.763 115.765C152.45 111.327 146.6 108.833 140.5 108.833C134.4 108.833 128.55 111.327 124.237 115.765C119.923 120.203 117.5 126.223 117.5 132.5C117.5 138.777 119.923 144.796 124.237 149.235C128.55 153.673 134.4 156.167 140.5 156.167ZM130.438 138.417H146.25C146.631 138.417 146.997 138.261 147.266 137.983C147.536 137.706 147.688 137.33 147.688 136.937C147.688 136.545 147.536 136.169 147.266 135.892C146.997 135.614 146.631 135.458 146.25 135.458H134.75C132.844 135.458 131.016 134.679 129.668 133.292C128.32 131.905 127.562 130.024 127.562 128.062C127.562 126.101 128.32 124.22 129.668 122.833C131.016 121.446 132.844 120.667 134.75 120.667H137.625V114.75H143.375V120.667H150.562V126.583H134.75C134.369 126.583 134.003 126.739 133.734 127.017C133.464 127.294 133.312 127.67 133.312 128.062C133.312 128.455 133.464 128.831 133.734 129.108C134.003 129.386 134.369 129.542 134.75 129.542H146.25C148.156 129.542 149.984 130.321 151.332 131.708C152.68 133.095 153.438 134.976 153.438 136.937C153.438 138.899 152.68 140.78 151.332 142.167C149.984 143.554 148.156 144.333 146.25 144.333H143.375V150.25H137.625V144.333H130.438V138.417Z" fill="#DFE0E0" fill-opacity="0.2"/>
<g opacity="0.2">
<path d="M81.018 224.378L69.018 217.278C68.7098 217.095 68.358 216.999 67.9997 217C67.6414 217 67.2899 217.097 66.982 217.28L54.982 224.38C54.6828 224.556 54.4348 224.808 54.2626 225.11C54.0904 225.411 53.9999 225.753 54 226.1V239.9C54 240.608 54.374 241.262 54.982 241.62L66.982 248.72C67.2895 248.905 67.6414 249.002 68 249.002C68.3586 249.002 68.7105 248.905 69.018 248.72L81.018 241.62C81.3172 241.444 81.5652 241.192 81.7374 240.89C81.9096 240.589 82.0001 240.247 82 239.9V226.1C82.0001 225.752 81.9096 225.411 81.7374 225.109C81.5652 224.807 81.3172 224.555 81.018 224.378ZM78 238.76L68 244.676L58 238.76V227.24L68 221.324L78 227.24V238.76Z" fill="#DFE0E0"/>
<path d="M48 239.368V221.14L60.4 213.812L58.366 210.368L44.982 218.278C44.6828 218.455 44.4348 218.707 44.2626 219.009C44.0904 219.311 43.9999 219.652 44 220V239.368C42.8335 239.779 41.8229 240.541 41.1067 241.55C40.3906 242.558 40.004 243.763 40 245C40 248.308 42.692 251 46 251C49.308 251 52 248.308 52 245C51.996 243.763 51.6094 242.558 50.8933 241.55C50.1771 240.541 49.1665 239.779 48 239.368ZM46 247C45.485 246.977 44.9988 246.756 44.6426 246.384C44.2863 246.011 44.0875 245.515 44.0875 245C44.0875 244.485 44.2863 243.989 44.6426 243.616C44.9988 243.244 45.485 243.023 46 243C46.515 243.023 47.0012 243.244 47.3574 243.616C47.7137 243.989 47.9125 244.485 47.9125 245C47.9125 245.515 47.7137 246.011 47.3574 246.384C47.0012 246.756 46.515 246.977 46 247ZM90 239C86.692 239 84 241.692 84 245C84 245.706 84.144 246.374 84.37 247.004L68 256.676L55.192 249.108L53.158 252.552L66.982 260.72C67.2899 260.903 67.6414 261 67.9997 261C68.358 261.001 68.7098 260.905 69.018 260.722L86.938 250.132C87.838 250.67 88.878 251 90 251C93.308 251 96 248.308 96 245C96 241.692 93.308 239 90 239ZM90 247C89.485 246.977 88.9988 246.756 88.6426 246.384C88.2863 246.011 88.0875 245.515 88.0875 245C88.0875 244.485 88.2863 243.989 88.6426 243.616C88.9988 243.244 89.485 243.023 90 243C90.515 243.023 91.0012 243.244 91.3574 243.616C91.7137 243.989 91.9125 244.485 91.9125 245C91.9125 245.515 91.7137 246.011 91.3574 246.384C91.0012 246.756 90.515 246.977 90 247ZM68 213C69.462 213 70.784 212.454 71.826 211.584L88 221.142V235H92V220C92.0001 219.652 91.9096 219.311 91.7374 219.009C91.5652 218.707 91.3172 218.455 91.018 218.278L73.884 208.154C73.956 207.78 74 207.396 74 207C74 203.692 71.308 201 68 201C64.692 201 62 203.692 62 207C62 210.308 64.692 213 68 213ZM68 205C68.3961 205 68.7835 205.117 69.113 205.337C69.4425 205.556 69.6994 205.869 69.8512 206.235C70.003 206.601 70.0428 207.004 69.9656 207.392C69.8884 207.781 69.6977 208.138 69.4176 208.418C69.1375 208.698 68.7806 208.888 68.3921 208.966C68.0035 209.043 67.6008 209.003 67.2349 208.851C66.869 208.699 66.5564 208.443 66.3366 208.113C66.1167 207.783 65.9996 207.396 66 207C66 205.896 66.898 205 68 205Z" fill="#62BD24" fill-opacity="0.1"/>
</g>
<path d="M248.987 24.4775C248.12 20.1154 245.752 16.1875 242.289 13.3646C238.826 10.5417 234.482 8.99899 230 9C222.534 9 216.05 13.2025 212.821 19.3525C209.024 19.7595 205.513 21.544 202.962 24.363C200.41 27.1821 199 30.8368 199 34.625C199 43.1069 205.949 50 214.5 50H248.083C255.213 50 261 44.26 261 37.1875C261 30.4225 255.704 24.9387 248.987 24.4775ZM248.083 44.875H214.5C208.791 44.875 204.167 40.2881 204.167 34.625C204.167 28.9619 208.791 24.375 214.5 24.375H216.334C218.039 18.4556 223.49 14.125 230 14.125C237.853 14.125 244.208 20.4288 244.208 28.2188V29.5H248.083C252.372 29.5 255.833 32.9338 255.833 37.1875C255.833 41.4412 252.372 44.875 248.083 44.875Z" fill="#DFE0E0" fill-opacity="0.05"/>
<g style="mix-blend-mode:darken">
<path d="M181.5 160.5C181.5 243.895 88.895 262.5 5.49998 262.5C-77.895 262.5 -61.5 132.395 -61.5 49C-61.5 -34.395 112.605 -11 196 -11C279.395 -11 181.5 77.105 181.5 160.5Z" fill="#62BD24" fill-opacity="0.3"/>
</g>
</g>
<defs>
<filter id="filter0_b_102_31" x="75.4893" y="468.656" width="538.842" height="579.202" filterUnits="userSpaceOnUse" color-interpolation-filters="sRGB">
<feFlood flood-opacity="0" result="BackgroundImageFix"/>
<feGaussianBlur in="BackgroundImageFix" stdDeviation="2"/>
<feComposite in2="SourceAlpha" operator="in" result="effect1_backgroundBlur_102_31"/>
<feBlend mode="normal" in="SourceGraphic" in2="effect1_backgroundBlur_102_31" result="shape"/>
</filter>
<clipPath id="clip0_102_31">
<rect width="430" height="932" fill="white"/>
</clipPath>
<clipPath id="clip1_102_31">
<rect width="69" height="71" fill="white" transform="translate(100 691)"/>
</clipPath>
</defs>
</svg>
