<svg width="430" height="932" viewBox="0 0 430 932" fill="none" xmlns="http://www.w3.org/2000/svg">
<g clip-path="url(#clip0_114_2)">
<rect width="430" height="932" fill="white"/>
<rect width="430" height="932" fill="#62BD24" fill-opacity="0.06"/>
<ellipse cx="59" cy="46.5" rx="7" ry="6.5" fill="#62BD24" fill-opacity="0.2"/>
<path d="M324 172C324 180.837 325.15 172 319.075 172C313 172 302 180.837 302 172C302 163.163 306.925 156 313 156C319.075 156 324 163.163 324 172Z" fill="#62BD24" fill-opacity="0.2"/>
<circle cx="127.5" cy="212.5" r="4.5" fill="#D9D9D9"/>
<circle cx="276" cy="298" r="7" fill="#62BD24" fill-opacity="0.2"/>
<circle cx="85.5" cy="481.5" r="5.5" fill="#62BD24" fill-opacity="0.2"/>
<circle cx="251" cy="510" r="5" fill="#62BD24" fill-opacity="0.2"/>
<circle cx="366" cy="471" r="5" fill="#D9D9D9"/>
<rect x="111" y="684" width="6" height="6" fill="#D9D9D9"/>
<circle cx="297" cy="770" r="5" fill="#62BD24" fill-opacity="0.2"/>
<circle cx="148.5" cy="765.5" r="4.5" fill="#D9D9D9"/>
<circle cx="52" cy="88" r="4" fill="#62BD24" fill-opacity="0.2"/>
<path d="M443 33C443 63.3757 418.376 88 388 88C357.624 88 313 63.3757 313 33C313 2.62434 357.624 -22 388 -22C418.376 -22 443 2.62434 443 33Z" fill="#62BD24" fill-opacity="0.3"/>
</g>
<defs>
<clipPath id="clip0_114_2">
<rect width="430" height="932" fill="white"/>
</clipPath>
</defs>
</svg>
