<svg width="430" height="290" viewBox="0 0 430 290" fill="none" xmlns="http://www.w3.org/2000/svg">
<g opacity="0.2">
<path d="M215.645 233.378L202.145 226.278C201.798 226.095 201.403 225.999 201 226C200.597 226 200.201 226.097 199.855 226.28L186.355 233.38C186.018 233.556 185.739 233.808 185.545 234.11C185.352 234.411 185.25 234.753 185.25 235.1V248.9C185.25 249.608 185.671 250.262 186.355 250.62L199.855 257.72C200.201 257.905 200.597 258.002 201 258.002C201.403 258.002 201.799 257.905 202.145 257.72L215.645 250.62C215.982 250.444 216.261 250.192 216.455 249.89C216.648 249.589 216.75 249.247 216.75 248.9V235.1C216.75 234.752 216.648 234.411 216.455 234.109C216.261 233.807 215.982 233.555 215.645 233.378V233.378ZM212.25 247.76L201 253.676L189.75 247.76V236.24L201 230.324L212.25 236.24V247.76V247.76Z" fill="#808080" fill-opacity="0.1"/>
</g>
<path d="M0 0.5H430V289.5H0V0.5Z" fill="#0CCD9D"/>
<path d="M163 156.368V138.14L176.95 130.812L174.662 127.368L159.605 135.278C159.268 135.455 158.989 135.707 158.795 136.009C158.602 136.311 158.5 136.652 158.5 137V156.368C157.188 156.779 156.051 157.541 155.245 158.55C154.439 159.558 154.004 160.763 154 162C154 165.308 157.028 168 160.75 168C164.472 168 167.5 165.308 167.5 162C167.496 160.763 167.061 159.558 166.255 158.55C165.449 157.541 164.312 156.779 163 156.368V156.368ZM160.75 164C160.171 163.977 159.624 163.756 159.223 163.384C158.822 163.011 158.598 162.515 158.598 162C158.598 161.485 158.822 160.989 159.223 160.616C159.624 160.244 160.171 160.023 160.75 160C161.329 160.023 161.876 160.244 162.277 160.616C162.678 160.989 162.902 161.485 162.902 162C162.902 162.515 162.678 163.011 162.277 163.384C161.876 163.756 161.329 163.977 160.75 164V164ZM210.25 156C206.528 156 203.5 158.692 203.5 162C203.5 162.706 203.662 163.374 203.916 164.004L185.5 173.676L171.091 166.108L168.803 169.552L184.355 177.72C184.701 177.903 185.097 178 185.5 178C185.903 178.001 186.298 177.905 186.645 177.722L206.805 167.132C207.818 167.67 208.988 168 210.25 168C213.972 168 217 165.308 217 162C217 158.692 213.972 156 210.25 156V156ZM210.25 164C209.671 163.977 209.124 163.756 208.723 163.384C208.322 163.011 208.098 162.515 208.098 162C208.098 161.485 208.322 160.989 208.723 160.616C209.124 160.244 209.671 160.023 210.25 160C210.829 160.023 211.376 160.244 211.777 160.616C212.178 160.989 212.402 161.485 212.402 162C212.402 162.515 212.178 163.011 211.777 163.384C211.376 163.756 210.829 163.977 210.25 164V164ZM185.5 130C187.145 130 188.632 129.454 189.804 128.584L208 138.142V152H212.5V137C212.5 136.652 212.398 136.311 212.205 136.009C212.011 135.707 211.732 135.455 211.395 135.278L192.119 125.154C192.2 124.78 192.25 124.396 192.25 124C192.25 120.692 189.222 118 185.5 118C181.778 118 178.75 120.692 178.75 124C178.75 127.308 181.778 130 185.5 130ZM185.5 122C185.946 122 186.381 122.117 186.752 122.337C187.123 122.556 187.412 122.869 187.583 123.235C187.753 123.601 187.798 124.004 187.711 124.392C187.625 124.781 187.41 125.138 187.095 125.418C186.78 125.698 186.378 125.888 185.941 125.966C185.504 126.043 185.051 126.003 184.639 125.851C184.228 125.699 183.876 125.443 183.629 125.113C183.381 124.783 183.25 124.396 183.25 124C183.25 122.896 184.26 122 185.5 122Z" fill="#808080" fill-opacity="0.1"/>
<path d="M31 191.368V173.14L44.95 165.812L42.6617 162.368L27.6048 170.278C27.2681 170.455 26.9892 170.707 26.7955 171.009C26.6017 171.311 26.4999 171.652 26.5 172V191.368C25.1877 191.779 24.0507 192.541 23.2451 193.55C22.4394 194.558 22.0045 195.763 22 197C22 200.308 25.0285 203 28.75 203C32.4715 203 35.5 200.308 35.5 197C35.4955 195.763 35.0606 194.558 34.2549 193.55C33.4493 192.541 32.3123 191.779 31 191.368ZM28.75 199C28.1707 198.977 27.6237 198.756 27.2229 198.384C26.8221 198.011 26.5984 197.515 26.5984 197C26.5984 196.485 26.8221 195.989 27.2229 195.616C27.6237 195.244 28.1707 195.023 28.75 195C29.3293 195.023 29.8763 195.244 30.2771 195.616C30.6779 195.989 30.9016 196.485 30.9016 197C30.9016 197.515 30.6779 198.011 30.2771 198.384C29.8763 198.756 29.3293 198.977 28.75 199ZM78.25 191C74.5285 191 71.5 193.692 71.5 197C71.5 197.706 71.662 198.374 71.9162 199.004L53.5 208.676L39.091 201.108L36.8028 204.552L52.3547 212.72C52.7011 212.903 53.0966 213 53.4997 213C53.9028 213.001 54.2985 212.905 54.6453 212.722L74.8052 202.132C75.8177 202.67 76.9878 203 78.25 203C81.9715 203 85 200.308 85 197C85 193.692 81.9715 191 78.25 191ZM78.25 199C77.6707 198.977 77.1237 198.756 76.7229 198.384C76.3221 198.011 76.0984 197.515 76.0984 197C76.0984 196.485 76.3221 195.989 76.7229 195.616C77.1237 195.244 77.6707 195.023 78.25 195C78.8293 195.023 79.3763 195.244 79.7771 195.616C80.1779 195.989 80.4016 196.485 80.4016 197C80.4016 197.515 80.1779 198.011 79.7771 198.384C79.3763 198.756 78.8293 198.977 78.25 199ZM53.5 165C55.1447 165 56.632 164.454 57.8042 163.584L76 173.142V187H80.5V172C80.5001 171.652 80.3983 171.311 80.2045 171.009C80.0108 170.707 79.7319 170.455 79.3953 170.278L60.1195 160.154C60.2005 159.78 60.25 159.396 60.25 159C60.25 155.692 57.2215 153 53.5 153C49.7785 153 46.75 155.692 46.75 159C46.75 162.308 49.7785 165 53.5 165ZM53.5 157C53.9456 157 54.3814 157.117 54.7521 157.337C55.1229 157.556 55.4119 157.869 55.5826 158.235C55.7534 158.601 55.7982 159.004 55.7113 159.392C55.6245 159.781 55.4099 160.138 55.0948 160.418C54.7797 160.698 54.3782 160.888 53.9411 160.966C53.504 161.043 53.0509 161.003 52.6393 160.851C52.2277 160.699 51.8759 160.443 51.6286 160.113C51.3813 159.783 51.2496 159.396 51.25 159C51.25 157.896 52.2602 157 53.5 157Z" fill="#808080" fill-opacity="0.1"/>
<path d="M338.429 30C336.458 30 334.569 30.7854 333.176 32.1834C331.783 33.5814 331 35.4775 331 37.4545V59.8182C331 61.7953 331.783 63.6913 333.176 65.0893C334.569 66.4873 336.458 67.2727 338.429 67.2727H349.571V59.8182H338.429V37.4545H349.571V30H338.429ZM360.714 30C358.744 30 356.855 30.7854 355.461 32.1834C354.068 33.5814 353.286 35.4775 353.286 37.4545V59.8182C353.286 61.7953 354.068 63.6913 355.461 65.0893C356.855 66.4873 358.744 67.2727 360.714 67.2727H368.143C370.113 67.2727 372.003 66.4873 373.396 65.0893C374.789 63.6913 375.571 61.7953 375.571 59.8182V37.4545C375.571 35.4775 374.789 33.5814 373.396 32.1834C372.003 30.7854 370.113 30 368.143 30H360.714ZM360.714 37.4545H368.143V59.8182H360.714V37.4545ZM379.286 43.0455V48.6364H390.429V54.2273H384.857C383.38 54.2273 381.962 54.8163 380.918 55.8648C379.873 56.9133 379.286 58.3354 379.286 59.8182V71H396V65.4091H384.857V59.8182H390.429C391.906 59.8182 393.323 59.2291 394.368 58.1806C395.413 57.1321 396 55.7101 396 54.2273V48.6364C396 47.1536 395.413 45.7315 394.368 44.683C393.323 43.6345 391.906 43.0455 390.429 43.0455H379.286Z" fill="#808080" fill-opacity="0.1"/>
<path d="M334.886 220C332.794 220 330.789 220.843 329.31 222.343C327.831 223.843 327 225.878 327 228V252C327 254.122 327.831 256.157 329.31 257.657C330.789 259.157 332.794 260 334.886 260H346.714V252H334.886V228H346.714V220H334.886ZM358.543 220C356.451 220 354.446 220.843 352.967 222.343C351.488 223.843 350.657 225.878 350.657 228V252C350.657 254.122 351.488 256.157 352.967 257.657C354.446 259.157 356.451 260 358.543 260H366.429C368.52 260 370.526 259.157 372.005 257.657C373.483 256.157 374.314 254.122 374.314 252V228C374.314 225.878 373.483 223.843 372.005 222.343C370.526 220.843 368.52 220 366.429 220H358.543ZM358.543 228H366.429V252H358.543V228ZM378.257 234V240H390.086V246H384.171C382.603 246 381.099 246.632 379.989 247.757C378.88 248.883 378.257 250.409 378.257 252V264H396V258H384.171V252H390.086C391.654 252 393.159 251.368 394.268 250.243C395.377 249.117 396 247.591 396 246V240C396 238.409 395.377 236.883 394.268 235.757C393.159 234.632 391.654 234 390.086 234H378.257Z" fill="#808080" fill-opacity="0.1"/>
<path d="M213.75 73.1667C197.871 73.1667 185 59.9222 185 43.5833C185 27.2445 197.871 14 213.75 14C229.629 14 242.5 27.2445 242.5 43.5833C242.5 59.9222 229.629 73.1667 213.75 73.1667ZM213.75 67.25C219.85 67.25 225.7 64.7566 230.013 60.3182C234.327 55.8798 236.75 49.8601 236.75 43.5833C236.75 37.3065 234.327 31.2868 230.013 26.8485C225.7 22.4101 219.85 19.9167 213.75 19.9167C207.65 19.9167 201.8 22.4101 197.487 26.8485C193.173 31.2868 190.75 37.3065 190.75 43.5833C190.75 49.8601 193.173 55.8798 197.487 60.3182C201.8 64.7566 207.65 67.25 213.75 67.25ZM203.688 49.5H219.5C219.881 49.5 220.247 49.3442 220.516 49.0668C220.786 48.7894 220.938 48.4131 220.938 48.0208C220.938 47.6285 220.786 47.2523 220.516 46.9749C220.247 46.6975 219.881 46.5417 219.5 46.5417H208C206.094 46.5417 204.266 45.7625 202.918 44.3755C201.57 42.9885 200.812 41.1073 200.812 39.1458C200.812 37.1843 201.57 35.3032 202.918 33.9162C204.266 32.5292 206.094 31.75 208 31.75H210.875V25.8333H216.625V31.75H223.812V37.6667H208C207.619 37.6667 207.253 37.8225 206.984 38.0999C206.714 38.3773 206.562 38.7535 206.562 39.1458C206.562 39.5381 206.714 39.9144 206.984 40.1918C207.253 40.4692 207.619 40.625 208 40.625H219.5C221.406 40.625 223.234 41.4042 224.582 42.7912C225.93 44.1782 226.688 46.0593 226.688 48.0208C226.688 49.9823 225.93 51.8635 224.582 53.2505C223.234 54.6375 221.406 55.4167 219.5 55.4167H216.625V61.3333H210.875V55.4167H203.688V49.5Z" fill="#808080" fill-opacity="0.1"/>
<path d="M148.75 272.167C132.871 272.167 120 258.922 120 242.583C120 226.244 132.871 213 148.75 213C164.629 213 177.5 226.244 177.5 242.583C177.5 258.922 164.629 272.167 148.75 272.167ZM148.75 266.25C154.85 266.25 160.7 263.757 165.013 259.318C169.327 254.88 171.75 248.86 171.75 242.583C171.75 236.307 169.327 230.287 165.013 225.848C160.7 221.41 154.85 218.917 148.75 218.917C142.65 218.917 136.8 221.41 132.487 225.848C128.173 230.287 125.75 236.307 125.75 242.583C125.75 248.86 128.173 254.88 132.487 259.318C136.8 263.757 142.65 266.25 148.75 266.25V266.25ZM138.688 248.5H154.5C154.881 248.5 155.247 248.344 155.516 248.067C155.786 247.789 155.938 247.413 155.938 247.021C155.938 246.629 155.786 246.252 155.516 245.975C155.247 245.698 154.881 245.542 154.5 245.542H143C141.094 245.542 139.266 244.762 137.918 243.375C136.57 241.988 135.812 240.107 135.812 238.146C135.812 236.184 136.57 234.303 137.918 232.916C139.266 231.529 141.094 230.75 143 230.75H145.875V224.833H151.625V230.75H158.812V236.667H143C142.619 236.667 142.253 236.823 141.984 237.1C141.714 237.377 141.562 237.754 141.562 238.146C141.562 238.538 141.714 238.914 141.984 239.192C142.253 239.469 142.619 239.625 143 239.625H154.5C156.406 239.625 158.234 240.404 159.582 241.791C160.93 243.178 161.688 245.059 161.688 247.021C161.688 248.982 160.93 250.863 159.582 252.25C158.234 253.637 156.406 254.417 154.5 254.417H151.625V260.333H145.875V254.417H138.688V248.5Z" fill="#808080" fill-opacity="0.1"/>
<path d="M50.5 93.0833C34.6214 93.0833 21.75 79.8389 21.75 63.5C21.75 47.1611 34.6214 33.9167 50.5 33.9167C66.3786 33.9167 79.25 47.1611 79.25 63.5C79.25 79.8389 66.3786 93.0833 50.5 93.0833ZM50.5 87.1667C56.6 87.1667 62.4501 84.6732 66.7635 80.2349C71.0768 75.7965 73.5 69.7768 73.5 63.5C73.5 57.2232 71.0768 51.2035 66.7635 46.7651C62.4501 42.3268 56.6 39.8333 50.5 39.8333C44.4 39.8333 38.5499 42.3268 34.2365 46.7651C29.9232 51.2035 27.5 57.2232 27.5 63.5C27.5 69.7768 29.9232 75.7965 34.2365 80.2349C38.5499 84.6732 44.4 87.1667 50.5 87.1667V87.1667ZM40.4375 69.4167H56.25C56.6312 69.4167 56.9969 69.2608 57.2665 68.9834C57.5361 68.706 57.6875 68.3298 57.6875 67.9375C57.6875 67.5452 57.5361 67.169 57.2665 66.8916C56.9969 66.6142 56.6312 66.4583 56.25 66.4583H44.75C42.8438 66.4583 41.0156 65.6791 39.6677 64.2921C38.3198 62.9051 37.5625 61.024 37.5625 59.0625C37.5625 57.101 38.3198 55.2198 39.6677 53.8328C41.0156 52.4459 42.8438 51.6667 44.75 51.6667H47.625V45.75H53.375V51.6667H60.5625V57.5833H44.75C44.3688 57.5833 44.0031 57.7392 43.7335 58.0166C43.4639 58.294 43.3125 58.6702 43.3125 59.0625C43.3125 59.4548 43.4639 59.831 43.7335 60.1084C44.0031 60.3858 44.3688 60.5417 44.75 60.5417H56.25C58.1562 60.5417 59.9844 61.3209 61.3323 62.7078C62.6802 64.0948 63.4375 65.976 63.4375 67.9375C63.4375 69.899 62.6802 71.7801 61.3323 73.1671C59.9844 74.5541 58.1562 75.3333 56.25 75.3333H53.375V81.25H47.625V75.3333H40.4375V69.4167Z" fill="#808080" fill-opacity="0.1"/>
<path d="M345.987 152.477C345.12 148.115 342.752 144.187 339.289 141.365C335.826 138.542 331.482 136.999 327 137C319.534 137 313.05 141.202 309.821 147.352C306.024 147.76 302.513 149.544 299.962 152.363C297.41 155.182 296 158.837 296 162.625C296 171.107 302.949 178 311.5 178H345.083C352.213 178 358 172.26 358 165.188C358 158.422 352.704 152.939 345.987 152.477ZM345.083 172.875H311.5C305.791 172.875 301.167 168.288 301.167 162.625C301.167 156.962 305.791 152.375 311.5 152.375H313.334C315.039 146.456 320.49 142.125 327 142.125C334.853 142.125 341.208 148.429 341.208 156.219V157.5H345.083C349.372 157.5 352.833 160.934 352.833 165.188C352.833 169.441 349.372 172.875 345.083 172.875Z" fill="#808080" fill-opacity="0.1"/>
</svg>
